<svg width="19" height="21" viewBox="0 0 19 21" fill="none" xmlns="http://www.w3.org/2000/svg">
<path d="M17.7026 7.57173C17.6071 7.62744 15.3338 8.8031 15.3338 11.4098C15.441 14.3826 18.2026 15.4252 18.25 15.4252C18.2026 15.4809 17.8331 16.8454 16.7383 18.2757C15.8696 19.5078 14.9053 20.75 13.441 20.75C12.0481 20.75 11.5481 19.9288 9.94097 19.9288C8.21504 19.9288 7.72668 20.75 6.40525 20.75C4.94096 20.75 3.90524 19.4412 2.98909 18.2207C1.79887 16.6232 0.787222 14.1164 0.751508 11.7093C0.72744 10.4338 0.989862 9.18004 1.65601 8.11507C2.59623 6.62831 4.27481 5.61905 6.10789 5.58577C7.51239 5.54164 8.7624 6.48434 9.61954 6.48434C10.441 6.48434 11.9767 5.58577 13.7143 5.58577C14.4643 5.58649 16.4643 5.79703 17.7026 7.57173ZM9.50075 5.3311C9.25075 4.16629 9.94097 3.00148 10.5838 2.25846C11.4053 1.3599 12.7026 0.75 13.8214 0.75C13.8928 1.91481 13.4402 3.05719 12.6312 3.8892C11.9053 4.78777 10.6553 5.46422 9.50075 5.3311Z" fill="white"/>
</svg>
